<mxfile host="Electron" agent="Mozilla/5.0 (Macintosh; Intel Mac OS X 10_15_7) AppleWebKit/537.36 (KHTML, like Gecko) draw.io/24.7.8 Chrome/128.0.6613.36 Electron/32.0.1 Safari/537.36" version="24.7.8">
  <diagram name="Page-1" id="HibKuJw0CE1xZKuOoS2J">
    <mxGraphModel dx="1060" dy="808" grid="1" gridSize="10" guides="1" tooltips="1" connect="1" arrows="1" fold="1" page="1" pageScale="1" pageWidth="827" pageHeight="1169" math="0" shadow="0">
      <root>
        <mxCell id="0" />
        <mxCell id="1" parent="0" />
        <mxCell id="OWubzHW4OG8Rasqdkwgq-49" value="" style="rounded=0;whiteSpace=wrap;html=1;fontFamily=Helvetica;fontSize=11;labelBackgroundColor=default;fillColor=#d5e8d4;strokeWidth=5;strokeColor=#82b366;" vertex="1" parent="1">
          <mxGeometry x="230" y="30" width="430" height="810" as="geometry" />
        </mxCell>
        <mxCell id="OWubzHW4OG8Rasqdkwgq-28" style="rounded=0;orthogonalLoop=1;jettySize=auto;html=1;entryX=0;entryY=0.5;entryDx=0;entryDy=0;" edge="1" parent="1" source="OWubzHW4OG8Rasqdkwgq-6" target="OWubzHW4OG8Rasqdkwgq-17">
          <mxGeometry relative="1" as="geometry" />
        </mxCell>
        <mxCell id="OWubzHW4OG8Rasqdkwgq-30" style="rounded=0;orthogonalLoop=1;jettySize=auto;html=1;entryX=0;entryY=0.5;entryDx=0;entryDy=0;" edge="1" parent="1" source="OWubzHW4OG8Rasqdkwgq-6" target="OWubzHW4OG8Rasqdkwgq-12">
          <mxGeometry relative="1" as="geometry" />
        </mxCell>
        <mxCell id="OWubzHW4OG8Rasqdkwgq-39" style="edgeStyle=orthogonalEdgeStyle;rounded=0;orthogonalLoop=1;jettySize=auto;html=1;endArrow=block;endFill=0;" edge="1" parent="1" source="OWubzHW4OG8Rasqdkwgq-6" target="OWubzHW4OG8Rasqdkwgq-7">
          <mxGeometry relative="1" as="geometry" />
        </mxCell>
        <mxCell id="OWubzHW4OG8Rasqdkwgq-6" value="Профессор" style="shape=umlActor;verticalLabelPosition=bottom;verticalAlign=top;html=1;outlineConnect=0;" vertex="1" parent="1">
          <mxGeometry x="120" y="140" width="30" height="60" as="geometry" />
        </mxCell>
        <mxCell id="OWubzHW4OG8Rasqdkwgq-33" style="rounded=0;orthogonalLoop=1;jettySize=auto;html=1;entryX=0;entryY=0.5;entryDx=0;entryDy=0;" edge="1" parent="1" source="OWubzHW4OG8Rasqdkwgq-7" target="OWubzHW4OG8Rasqdkwgq-18">
          <mxGeometry relative="1" as="geometry" />
        </mxCell>
        <mxCell id="OWubzHW4OG8Rasqdkwgq-7" value="Пользователь" style="shape=umlActor;verticalLabelPosition=bottom;verticalAlign=top;html=1;outlineConnect=0;" vertex="1" parent="1">
          <mxGeometry x="120" y="310" width="30" height="60" as="geometry" />
        </mxCell>
        <mxCell id="OWubzHW4OG8Rasqdkwgq-40" style="edgeStyle=orthogonalEdgeStyle;rounded=0;orthogonalLoop=1;jettySize=auto;html=1;endArrow=block;endFill=0;" edge="1" parent="1" source="OWubzHW4OG8Rasqdkwgq-8" target="OWubzHW4OG8Rasqdkwgq-7">
          <mxGeometry relative="1" as="geometry">
            <Array as="points">
              <mxPoint x="80" y="490" />
              <mxPoint x="80" y="340" />
            </Array>
          </mxGeometry>
        </mxCell>
        <mxCell id="OWubzHW4OG8Rasqdkwgq-43" style="edgeStyle=none;shape=connector;rounded=0;orthogonalLoop=1;jettySize=auto;html=1;entryX=0;entryY=0.5;entryDx=0;entryDy=0;strokeColor=default;align=center;verticalAlign=middle;fontFamily=Helvetica;fontSize=11;fontColor=default;labelBackgroundColor=default;endArrow=classic;" edge="1" parent="1" source="OWubzHW4OG8Rasqdkwgq-8" target="OWubzHW4OG8Rasqdkwgq-20">
          <mxGeometry relative="1" as="geometry" />
        </mxCell>
        <mxCell id="OWubzHW4OG8Rasqdkwgq-44" style="edgeStyle=none;shape=connector;rounded=0;orthogonalLoop=1;jettySize=auto;html=1;entryX=0;entryY=0.5;entryDx=0;entryDy=0;strokeColor=default;align=center;verticalAlign=middle;fontFamily=Helvetica;fontSize=11;fontColor=default;labelBackgroundColor=default;endArrow=classic;" edge="1" parent="1" source="OWubzHW4OG8Rasqdkwgq-8" target="OWubzHW4OG8Rasqdkwgq-24">
          <mxGeometry relative="1" as="geometry" />
        </mxCell>
        <mxCell id="OWubzHW4OG8Rasqdkwgq-8" value="Студент" style="shape=umlActor;verticalLabelPosition=bottom;verticalAlign=top;html=1;outlineConnect=0;" vertex="1" parent="1">
          <mxGeometry x="120" y="460" width="30" height="60" as="geometry" />
        </mxCell>
        <mxCell id="OWubzHW4OG8Rasqdkwgq-9" value="Каталог курсов" style="shape=umlActor;verticalLabelPosition=bottom;verticalAlign=top;html=1;outlineConnect=0;" vertex="1" parent="1">
          <mxGeometry x="740" y="320" width="30" height="60" as="geometry" />
        </mxCell>
        <mxCell id="OWubzHW4OG8Rasqdkwgq-10" value="Рассчетная система" style="shape=umlActor;verticalLabelPosition=bottom;verticalAlign=top;html=1;outlineConnect=0;" vertex="1" parent="1">
          <mxGeometry x="740" y="570" width="30" height="60" as="geometry" />
        </mxCell>
        <mxCell id="OWubzHW4OG8Rasqdkwgq-32" style="rounded=0;orthogonalLoop=1;jettySize=auto;html=1;exitX=1;exitY=1;exitDx=0;exitDy=0;" edge="1" parent="1" source="OWubzHW4OG8Rasqdkwgq-12" target="OWubzHW4OG8Rasqdkwgq-9">
          <mxGeometry relative="1" as="geometry" />
        </mxCell>
        <mxCell id="OWubzHW4OG8Rasqdkwgq-46" value="&amp;lt;&amp;lt;include&amp;gt;&amp;gt;" style="edgeStyle=none;shape=connector;rounded=0;orthogonalLoop=1;jettySize=auto;html=1;strokeColor=default;align=center;verticalAlign=middle;fontFamily=Helvetica;fontSize=11;fontColor=default;labelBackgroundColor=default;endArrow=classic;dashed=1;" edge="1" parent="1" source="OWubzHW4OG8Rasqdkwgq-12" target="OWubzHW4OG8Rasqdkwgq-25">
          <mxGeometry x="0.5963" y="1" relative="1" as="geometry">
            <mxPoint as="offset" />
          </mxGeometry>
        </mxCell>
        <mxCell id="OWubzHW4OG8Rasqdkwgq-12" value="Выбрать&lt;div&gt;ч&lt;span style=&quot;background-color: initial;&quot;&gt;итаемые курсы&lt;/span&gt;&lt;/div&gt;" style="ellipse;whiteSpace=wrap;html=1;" vertex="1" parent="1">
          <mxGeometry x="440" y="100" width="120" height="60" as="geometry" />
        </mxCell>
        <mxCell id="OWubzHW4OG8Rasqdkwgq-17" value="Поставить оценки" style="ellipse;whiteSpace=wrap;html=1;" vertex="1" parent="1">
          <mxGeometry x="300" y="170" width="120" height="60" as="geometry" />
        </mxCell>
        <mxCell id="OWubzHW4OG8Rasqdkwgq-18" value="Войти в систему" style="ellipse;whiteSpace=wrap;html=1;" vertex="1" parent="1">
          <mxGeometry x="280" y="280" width="120" height="60" as="geometry" />
        </mxCell>
        <mxCell id="OWubzHW4OG8Rasqdkwgq-19" value="CRUID данных о студенте" style="ellipse;whiteSpace=wrap;html=1;" vertex="1" parent="1">
          <mxGeometry x="350" y="670" width="120" height="60" as="geometry" />
        </mxCell>
        <mxCell id="OWubzHW4OG8Rasqdkwgq-20" value="Посмотреть табель" style="ellipse;whiteSpace=wrap;html=1;" vertex="1" parent="1">
          <mxGeometry x="300" y="460" width="120" height="60" as="geometry" />
        </mxCell>
        <mxCell id="OWubzHW4OG8Rasqdkwgq-21" value="CRUID данных о профессорах" style="ellipse;whiteSpace=wrap;html=1;" vertex="1" parent="1">
          <mxGeometry x="340" y="585" width="120" height="60" as="geometry" />
        </mxCell>
        <mxCell id="OWubzHW4OG8Rasqdkwgq-35" style="rounded=0;orthogonalLoop=1;jettySize=auto;html=1;" edge="1" parent="1" source="OWubzHW4OG8Rasqdkwgq-22" target="OWubzHW4OG8Rasqdkwgq-10">
          <mxGeometry relative="1" as="geometry" />
        </mxCell>
        <mxCell id="OWubzHW4OG8Rasqdkwgq-22" value="Закрыть регистрацию" style="ellipse;whiteSpace=wrap;html=1;" vertex="1" parent="1">
          <mxGeometry x="354" y="760" width="120" height="60" as="geometry" />
        </mxCell>
        <mxCell id="OWubzHW4OG8Rasqdkwgq-38" style="rounded=0;orthogonalLoop=1;jettySize=auto;html=1;" edge="1" parent="1" source="OWubzHW4OG8Rasqdkwgq-23" target="OWubzHW4OG8Rasqdkwgq-9">
          <mxGeometry relative="1" as="geometry" />
        </mxCell>
        <mxCell id="OWubzHW4OG8Rasqdkwgq-23" value="Открыть регистрацию" style="ellipse;whiteSpace=wrap;html=1;" vertex="1" parent="1">
          <mxGeometry x="495" y="470" width="120" height="60" as="geometry" />
        </mxCell>
        <mxCell id="OWubzHW4OG8Rasqdkwgq-45" style="edgeStyle=none;shape=connector;rounded=0;orthogonalLoop=1;jettySize=auto;html=1;strokeColor=default;align=center;verticalAlign=middle;fontFamily=Helvetica;fontSize=11;fontColor=default;labelBackgroundColor=default;endArrow=classic;" edge="1" parent="1" source="OWubzHW4OG8Rasqdkwgq-24" target="OWubzHW4OG8Rasqdkwgq-9">
          <mxGeometry relative="1" as="geometry" />
        </mxCell>
        <mxCell id="OWubzHW4OG8Rasqdkwgq-24" value="Зарегистрироваться на курсы" style="ellipse;whiteSpace=wrap;html=1;" vertex="1" parent="1">
          <mxGeometry x="354" y="380" width="130" height="60" as="geometry" />
        </mxCell>
        <mxCell id="OWubzHW4OG8Rasqdkwgq-25" value="Посмотреть список студентов на курсе" style="ellipse;whiteSpace=wrap;html=1;" vertex="1" parent="1">
          <mxGeometry x="440" y="250" width="120" height="60" as="geometry" />
        </mxCell>
        <mxCell id="OWubzHW4OG8Rasqdkwgq-34" style="rounded=0;orthogonalLoop=1;jettySize=auto;html=1;entryX=0;entryY=0.5;entryDx=0;entryDy=0;" edge="1" parent="1" source="OWubzHW4OG8Rasqdkwgq-26" target="OWubzHW4OG8Rasqdkwgq-22">
          <mxGeometry relative="1" as="geometry" />
        </mxCell>
        <mxCell id="OWubzHW4OG8Rasqdkwgq-36" style="rounded=0;orthogonalLoop=1;jettySize=auto;html=1;entryX=0;entryY=0.5;entryDx=0;entryDy=0;" edge="1" parent="1" source="OWubzHW4OG8Rasqdkwgq-26" target="OWubzHW4OG8Rasqdkwgq-19">
          <mxGeometry relative="1" as="geometry" />
        </mxCell>
        <mxCell id="OWubzHW4OG8Rasqdkwgq-37" style="rounded=0;orthogonalLoop=1;jettySize=auto;html=1;entryX=0;entryY=0.5;entryDx=0;entryDy=0;" edge="1" parent="1" source="OWubzHW4OG8Rasqdkwgq-26" target="OWubzHW4OG8Rasqdkwgq-23">
          <mxGeometry relative="1" as="geometry" />
        </mxCell>
        <mxCell id="OWubzHW4OG8Rasqdkwgq-41" style="edgeStyle=orthogonalEdgeStyle;rounded=0;orthogonalLoop=1;jettySize=auto;html=1;endArrow=block;endFill=0;" edge="1" parent="1" source="OWubzHW4OG8Rasqdkwgq-26" target="OWubzHW4OG8Rasqdkwgq-7">
          <mxGeometry relative="1" as="geometry">
            <Array as="points">
              <mxPoint x="30" y="650" />
              <mxPoint x="30" y="330" />
            </Array>
          </mxGeometry>
        </mxCell>
        <mxCell id="OWubzHW4OG8Rasqdkwgq-47" style="edgeStyle=none;shape=connector;rounded=0;orthogonalLoop=1;jettySize=auto;html=1;entryX=0;entryY=0.5;entryDx=0;entryDy=0;strokeColor=default;align=center;verticalAlign=middle;fontFamily=Helvetica;fontSize=11;fontColor=default;labelBackgroundColor=default;endArrow=classic;" edge="1" parent="1" source="OWubzHW4OG8Rasqdkwgq-26" target="OWubzHW4OG8Rasqdkwgq-21">
          <mxGeometry relative="1" as="geometry" />
        </mxCell>
        <mxCell id="OWubzHW4OG8Rasqdkwgq-26" value="Регистратор" style="shape=umlActor;verticalLabelPosition=bottom;verticalAlign=top;html=1;outlineConnect=0;" vertex="1" parent="1">
          <mxGeometry x="120" y="620" width="30" height="60" as="geometry" />
        </mxCell>
        <mxCell id="OWubzHW4OG8Rasqdkwgq-51" value="&lt;font style=&quot;font-size: 14px;&quot;&gt;Система регистрации для ВУЗа&lt;/font&gt;" style="text;strokeColor=none;fillColor=none;align=left;verticalAlign=middle;spacingLeft=4;spacingRight=4;overflow=hidden;points=[[0,0.5],[1,0.5]];portConstraint=eastwest;rotatable=0;whiteSpace=wrap;html=1;fontFamily=Helvetica;fontSize=11;fontColor=default;labelBackgroundColor=none;fontStyle=1" vertex="1" parent="1">
          <mxGeometry x="317" y="50" width="256" height="30" as="geometry" />
        </mxCell>
      </root>
    </mxGraphModel>
  </diagram>
</mxfile>
